<?xml version="1.0" encoding="utf-8"?>
<!-- Generator: Adobe Illustrator 25.4.1, SVG Export Plug-In . SVG Version: 6.00 Build 0)  -->
<svg version="1.1" id="Слой_2_00000112590468818213682360000017684833877848046527_"
	 xmlns="http://www.w3.org/2000/svg" xmlns:xlink="http://www.w3.org/1999/xlink" x="0px" y="0px" viewBox="0 0 308 308"
	 style="enable-background:new 0 0 308 308;" xml:space="preserve">
<style type="text/css">
	.st0{fill:none;stroke:#3c6faa;stroke-width:6;stroke-miterlimit:10;}
	.st1{fill:none;stroke:#3c6faa;stroke-width:4;stroke-miterlimit:10;}
	.st2{fill:none;stroke:#3c6faa;stroke-width:6;stroke-linecap:round;stroke-miterlimit:10;}
</style>
<g>
	<path class="st0" d="M249.4,221.5l-211.6-0.6c-13.2,0.3-24.1-4.8-27.4-13.1c-0.4-1-1.9-4.9-0.6-9.5c2.1-7.5,10-10.9,16.3-13.6
		c11.8-5,22.3-5.3,25.9-5.4c24-0.6,36,0.3,44.8,0.2c43.7-0.4,87.8-0.1,131.5-0.5L249.4,221.5z"/>
	<line class="st0" x1="86.5" y1="220.5" x2="97.8" y2="179.6"/>
	<circle class="st1" cx="66.1" cy="131.1" r="5.4"/>
	<circle class="st1" cx="210.5" cy="162.2" r="5.4"/>
	<circle class="st1" cx="195.8" cy="130" r="5.4"/>
	<circle class="st1" cx="101.8" cy="154.9" r="3.9"/>
	<line class="st0" x1="64.7" y1="159.1" x2="98.4" y2="155.3"/>
	<path class="st0" d="M105.7,154.9c1.7-0.6,99.8,5.3,99.8,5.3"/>
	<line class="st2" x1="217.2" y1="163" x2="279.9" y2="178.2"/>
	<line class="st2" x1="252" y1="147.4" x2="201.9" y2="132.8"/>
	<line class="st0" x1="71.9" y1="131.1" x2="190.9" y2="129.5"/>
	<path class="st0" d="M125.5,130l-34.2,22.9c-4,2.7-7.7,5.8-10.9,9.4c-13.5,15.2-19.2,24.2-16.9,27.1c0.4,0.6,1.2,0.9,2.2,1
		c1.7,0.1,3.3-0.4,4.7-1.3c17.6-11.3,35.3-22.5,52.9-33.8"/>
	<path class="st1" d="M42.5,132.3l-7.8,7.6c-0.8,0.8-2.2,0.4-2.4-0.8c-0.9-4.5-1.7-9-2.6-13.5c-1.9-10.1-3.9-20.3-5.8-30.4
		c-0.2-0.8-1.1-4.6,1.1-8.1c0.2-0.3,0.4-0.6,0.6-0.9c0,0,0-0.1,0.1-0.1c1.5-1.8,3.9-2.7,6.1-1.9l0,0c4.4,1.5,5.4,6.9,5.5,7.1
		L42.5,132.3z"/>
	<line class="st0" x1="41.7" y1="132.5" x2="60.7" y2="132.5"/>
	<path class="st1" d="M45.4,162.2c0,2.1-1.2,4-3,4.8c-0.7,0.4-1.5,0.5-2.4,0.5c-3,0-5.4-2.4-5.4-5.4c0-0.7,0.1-1.4,0.4-2
		c0.8-2,2.7-3.4,5-3.4C43,156.8,45.4,159.2,45.4,162.2z"/>
	<path class="st0" d="M31.4,134.5l-7.5,9.1c-0.7,1-0.9,2.3-0.6,3.5l2.9,10.5c0.4,1.5,1.8,2.6,3.3,2.6h5.6"/>
	<polyline class="st0" points="44,132.9 64.7,159.1 59.8,167.6 43.9,165.2 	"/>
	<path class="st0" d="M247.6,215.7c9.6,0.4,17.3,1.8,22.8,2.9c14.4,3.1,24.7,7.8,27.6,4.1c1.1-1.4,0.8-3.3,0.5-4.7
		c-0.6-1.3-1.6-3.2-3.3-5.1c-0.2-0.3-0.5-0.5-0.7-0.7c-2.3-2.2-5.1-3.7-8.2-4.4C252,199.5,183.3,188,183.3,188l-7.9-29.2"/>
</g>
</svg>
